<mxfile host="app.diagrams.net" modified="2024-03-19T01:28:19.045Z" agent="Mozilla/5.0 (Macintosh; Intel Mac OS X 10_15_7) AppleWebKit/537.36 (KHTML, like Gecko) Chrome/122.0.0.0 Safari/537.36" etag="1-yK62UkPGlKoTsEWqch" version="24.0.7" type="device">
  <diagram name="Page-1" id="6HRoGfWBaaDKhnXAU6vd">
    <mxGraphModel dx="2156" dy="1926" grid="1" gridSize="10" guides="1" tooltips="1" connect="1" arrows="1" fold="1" page="1" pageScale="1" pageWidth="850" pageHeight="1100" math="0" shadow="0">
      <root>
        <mxCell id="0" />
        <mxCell id="1" parent="0" />
        <mxCell id="vckTE8xcX2gjwNGocpAb-1" value="&lt;font size=&quot;1&quot; data-font-src=&quot;https://fonts.googleapis.com/css?family=Italianno&quot; face=&quot;Italianno&quot; style=&quot;&quot; color=&quot;#ffffff&quot;&gt;&lt;b style=&quot;font-size: 27px;&quot;&gt;f&lt;/b&gt;&lt;/font&gt;" style="rounded=1;whiteSpace=wrap;html=1;fillColor=#000000;strokeColor=none;fontColor=#FF6666;" parent="1" vertex="1">
          <mxGeometry x="40" y="320" width="60" height="60" as="geometry" />
        </mxCell>
        <mxCell id="vckTE8xcX2gjwNGocpAb-2" value="&lt;font color=&quot;#ffffff&quot; face=&quot;Italianno&quot; style=&quot;font-size: 27px;&quot;&gt;f&lt;/font&gt;" style="rounded=1;whiteSpace=wrap;html=1;fillColor=#000000;strokeColor=none;fontColor=#FF6666;" parent="1" vertex="1">
          <mxGeometry x="180" y="320" width="60" height="60" as="geometry" />
        </mxCell>
        <mxCell id="vckTE8xcX2gjwNGocpAb-3" value="&lt;span style=&quot;color: rgb(255, 255, 255); font-family: Italianno; font-size: 27px;&quot;&gt;f&lt;/span&gt;" style="rounded=1;whiteSpace=wrap;html=1;fillColor=#000000;strokeColor=none;fontColor=#FF6666;" parent="1" vertex="1">
          <mxGeometry x="320" y="320" width="60" height="60" as="geometry" />
        </mxCell>
        <mxCell id="vckTE8xcX2gjwNGocpAb-4" value="&lt;span style=&quot;color: rgb(255, 255, 255); font-family: Italianno; font-size: 27px;&quot;&gt;f&lt;/span&gt;" style="rounded=1;whiteSpace=wrap;html=1;fillColor=#000000;strokeColor=none;fontColor=#FF6666;" parent="1" vertex="1">
          <mxGeometry x="460" y="320" width="60" height="60" as="geometry" />
        </mxCell>
        <mxCell id="vckTE8xcX2gjwNGocpAb-5" style="edgeStyle=orthogonalEdgeStyle;rounded=0;orthogonalLoop=1;jettySize=auto;html=1;exitX=0.5;exitY=0;exitDx=0;exitDy=0;strokeWidth=3;strokeColor=#6666FF;fontColor=#FF6666;" parent="1" edge="1">
          <mxGeometry relative="1" as="geometry">
            <mxPoint x="69.5" y="439" as="sourcePoint" />
            <mxPoint x="69.5" y="389" as="targetPoint" />
          </mxGeometry>
        </mxCell>
        <mxCell id="vckTE8xcX2gjwNGocpAb-6" value="&lt;font face=&quot;Ubuntu&quot; style=&quot;font-size: 20px;&quot;&gt;&lt;b&gt;h&lt;/b&gt;&lt;/font&gt;" style="ellipse;whiteSpace=wrap;html=1;aspect=fixed;fillColor=#00CC00;fontColor=#FFFFFF;" parent="1" vertex="1">
          <mxGeometry x="45" y="450" width="50" height="50" as="geometry" />
        </mxCell>
        <mxCell id="vckTE8xcX2gjwNGocpAb-7" style="edgeStyle=orthogonalEdgeStyle;rounded=0;orthogonalLoop=1;jettySize=auto;html=1;exitX=0.5;exitY=0;exitDx=0;exitDy=0;strokeWidth=3;strokeColor=#6666FF;fontColor=#FF6666;" parent="1" edge="1">
          <mxGeometry relative="1" as="geometry">
            <mxPoint x="69.5" y="310" as="sourcePoint" />
            <mxPoint x="69.5" y="260" as="targetPoint" />
          </mxGeometry>
        </mxCell>
        <mxCell id="vckTE8xcX2gjwNGocpAb-8" value="&lt;font face=&quot;Ubuntu&quot;&gt;&lt;span style=&quot;font-size: 20px;&quot;&gt;&lt;b&gt;e&lt;/b&gt;&lt;/span&gt;&lt;/font&gt;" style="ellipse;whiteSpace=wrap;html=1;aspect=fixed;fillColor=#FF3399;fontColor=#FFFFFF;" parent="1" vertex="1">
          <mxGeometry x="45" y="200" width="50" height="50" as="geometry" />
        </mxCell>
        <mxCell id="vckTE8xcX2gjwNGocpAb-9" value="&lt;font face=&quot;Ubuntu&quot;&gt;&lt;span style=&quot;font-size: 20px;&quot;&gt;&lt;b&gt;l&lt;/b&gt;&lt;/span&gt;&lt;/font&gt;" style="ellipse;whiteSpace=wrap;html=1;aspect=fixed;fillColor=#FF3399;fontColor=#FFFFFF;" parent="1" vertex="1">
          <mxGeometry x="185" y="200" width="50" height="50" as="geometry" />
        </mxCell>
        <mxCell id="vckTE8xcX2gjwNGocpAb-10" value="&lt;font face=&quot;Ubuntu&quot;&gt;&lt;span style=&quot;font-size: 20px;&quot;&gt;&lt;b&gt;l&lt;/b&gt;&lt;/span&gt;&lt;/font&gt;" style="ellipse;whiteSpace=wrap;html=1;aspect=fixed;fillColor=#FF3399;fontColor=#FFFFFF;" parent="1" vertex="1">
          <mxGeometry x="325" y="200" width="50" height="50" as="geometry" />
        </mxCell>
        <mxCell id="vckTE8xcX2gjwNGocpAb-11" value="&lt;font face=&quot;Ubuntu&quot;&gt;&lt;span style=&quot;font-size: 20px;&quot;&gt;&lt;b&gt;o&lt;/b&gt;&lt;/span&gt;&lt;/font&gt;" style="ellipse;whiteSpace=wrap;html=1;aspect=fixed;fillColor=#FF3399;fontColor=#FFFFFF;" parent="1" vertex="1">
          <mxGeometry x="465" y="200" width="50" height="50" as="geometry" />
        </mxCell>
        <mxCell id="vckTE8xcX2gjwNGocpAb-12" style="edgeStyle=orthogonalEdgeStyle;rounded=0;orthogonalLoop=1;jettySize=auto;html=1;exitX=0.5;exitY=0;exitDx=0;exitDy=0;strokeWidth=3;strokeColor=#6666FF;fontColor=#FF6666;" parent="1" edge="1">
          <mxGeometry relative="1" as="geometry">
            <mxPoint x="209.5" y="310" as="sourcePoint" />
            <mxPoint x="209.5" y="260" as="targetPoint" />
          </mxGeometry>
        </mxCell>
        <mxCell id="vckTE8xcX2gjwNGocpAb-13" style="edgeStyle=orthogonalEdgeStyle;rounded=0;orthogonalLoop=1;jettySize=auto;html=1;exitX=0.5;exitY=0;exitDx=0;exitDy=0;strokeWidth=3;strokeColor=#6666FF;fontColor=#FF6666;" parent="1" edge="1">
          <mxGeometry relative="1" as="geometry">
            <mxPoint x="349.5" y="310" as="sourcePoint" />
            <mxPoint x="349.5" y="260" as="targetPoint" />
          </mxGeometry>
        </mxCell>
        <mxCell id="vckTE8xcX2gjwNGocpAb-14" style="edgeStyle=orthogonalEdgeStyle;rounded=0;orthogonalLoop=1;jettySize=auto;html=1;exitX=0.5;exitY=0;exitDx=0;exitDy=0;strokeWidth=3;strokeColor=#6666FF;fontColor=#FF6666;" parent="1" edge="1">
          <mxGeometry relative="1" as="geometry">
            <mxPoint x="489.5" y="310" as="sourcePoint" />
            <mxPoint x="489.5" y="260" as="targetPoint" />
          </mxGeometry>
        </mxCell>
        <mxCell id="vckTE8xcX2gjwNGocpAb-15" value="&lt;font face=&quot;Ubuntu&quot; style=&quot;font-size: 20px;&quot;&gt;&lt;b&gt;e&lt;/b&gt;&lt;/font&gt;" style="ellipse;whiteSpace=wrap;html=1;aspect=fixed;fillColor=#00CC00;fontColor=#FFFFFF;" parent="1" vertex="1">
          <mxGeometry x="185" y="450" width="50" height="50" as="geometry" />
        </mxCell>
        <mxCell id="vckTE8xcX2gjwNGocpAb-16" value="&lt;font face=&quot;Ubuntu&quot; style=&quot;font-size: 20px;&quot;&gt;&lt;b&gt;l&lt;/b&gt;&lt;/font&gt;" style="ellipse;whiteSpace=wrap;html=1;aspect=fixed;fillColor=#00CC00;fontColor=#FFFFFF;" parent="1" vertex="1">
          <mxGeometry x="325" y="450" width="50" height="50" as="geometry" />
        </mxCell>
        <mxCell id="vckTE8xcX2gjwNGocpAb-17" value="&lt;font face=&quot;Ubuntu&quot; style=&quot;font-size: 20px;&quot;&gt;&lt;b&gt;l&lt;/b&gt;&lt;/font&gt;" style="ellipse;whiteSpace=wrap;html=1;aspect=fixed;fillColor=#00CC00;fontColor=#FFFFFF;" parent="1" vertex="1">
          <mxGeometry x="465" y="450" width="50" height="50" as="geometry" />
        </mxCell>
        <mxCell id="vckTE8xcX2gjwNGocpAb-18" style="edgeStyle=orthogonalEdgeStyle;rounded=0;orthogonalLoop=1;jettySize=auto;html=1;exitX=0.5;exitY=0;exitDx=0;exitDy=0;strokeWidth=3;strokeColor=#6666FF;fontColor=#FF6666;" parent="1" edge="1">
          <mxGeometry relative="1" as="geometry">
            <mxPoint x="209.5" y="440" as="sourcePoint" />
            <mxPoint x="209.5" y="390" as="targetPoint" />
          </mxGeometry>
        </mxCell>
        <mxCell id="vckTE8xcX2gjwNGocpAb-19" style="edgeStyle=orthogonalEdgeStyle;rounded=0;orthogonalLoop=1;jettySize=auto;html=1;exitX=0.5;exitY=0;exitDx=0;exitDy=0;strokeWidth=3;strokeColor=#6666FF;fontColor=#FF6666;" parent="1" edge="1">
          <mxGeometry relative="1" as="geometry">
            <mxPoint x="349.5" y="440" as="sourcePoint" />
            <mxPoint x="349.5" y="390" as="targetPoint" />
          </mxGeometry>
        </mxCell>
        <mxCell id="vckTE8xcX2gjwNGocpAb-20" style="edgeStyle=orthogonalEdgeStyle;rounded=0;orthogonalLoop=1;jettySize=auto;html=1;exitX=0.5;exitY=0;exitDx=0;exitDy=0;strokeWidth=3;strokeColor=#6666FF;fontColor=#FF6666;" parent="1" edge="1">
          <mxGeometry relative="1" as="geometry">
            <mxPoint x="489.5" y="440" as="sourcePoint" />
            <mxPoint x="489.5" y="390" as="targetPoint" />
          </mxGeometry>
        </mxCell>
        <mxCell id="vckTE8xcX2gjwNGocpAb-21" style="edgeStyle=orthogonalEdgeStyle;rounded=0;orthogonalLoop=1;jettySize=auto;html=1;exitX=0.5;exitY=0;exitDx=0;exitDy=0;strokeWidth=3;strokeColor=#B266FF;fontColor=#FF6666;" parent="1" edge="1">
          <mxGeometry relative="1" as="geometry">
            <mxPoint x="110" y="349.78" as="sourcePoint" />
            <mxPoint x="170.5" y="349.78" as="targetPoint" />
          </mxGeometry>
        </mxCell>
        <mxCell id="vckTE8xcX2gjwNGocpAb-22" style="edgeStyle=orthogonalEdgeStyle;rounded=0;orthogonalLoop=1;jettySize=auto;html=1;exitX=0.5;exitY=0;exitDx=0;exitDy=0;strokeWidth=3;strokeColor=#B266FF;fontColor=#FF6666;" parent="1" edge="1">
          <mxGeometry relative="1" as="geometry">
            <mxPoint x="250" y="349.76" as="sourcePoint" />
            <mxPoint x="310.5" y="349.76" as="targetPoint" />
          </mxGeometry>
        </mxCell>
        <mxCell id="vckTE8xcX2gjwNGocpAb-23" style="edgeStyle=orthogonalEdgeStyle;rounded=0;orthogonalLoop=1;jettySize=auto;html=1;exitX=0.5;exitY=0;exitDx=0;exitDy=0;strokeWidth=3;strokeColor=#B266FF;fontColor=#FF6666;" parent="1" edge="1">
          <mxGeometry relative="1" as="geometry">
            <mxPoint x="394.75" y="349.76" as="sourcePoint" />
            <mxPoint x="455.25" y="349.76" as="targetPoint" />
          </mxGeometry>
        </mxCell>
        <mxCell id="vckTE8xcX2gjwNGocpAb-24" value="&lt;font data-font-src=&quot;https://fonts.googleapis.com/css?family=Italianno&quot; face=&quot;Italianno&quot; style=&quot;font-size: 25px;&quot;&gt;&lt;span style=&quot;font-size: 25px;&quot;&gt;h&lt;sub style=&quot;font-size: 25px;&quot;&gt;1&lt;/sub&gt;&lt;/span&gt;&lt;/font&gt;" style="text;html=1;align=center;verticalAlign=middle;whiteSpace=wrap;rounded=0;fontSize=25;fontStyle=1" parent="1" vertex="1">
          <mxGeometry x="110" y="320" width="60" height="30" as="geometry" />
        </mxCell>
        <mxCell id="vckTE8xcX2gjwNGocpAb-25" value="&lt;font style=&quot;font-size: 25px;&quot;&gt;&lt;span style=&quot;font-size: 25px;&quot;&gt;&lt;span style=&quot;font-size: 25px;&quot;&gt;h&lt;/span&gt;&lt;span style=&quot;font-size: 25px;&quot;&gt;&lt;sub style=&quot;font-size: 25px;&quot;&gt;2&lt;/sub&gt;&lt;/span&gt;&lt;/span&gt;&lt;/font&gt;" style="text;html=1;align=center;verticalAlign=middle;whiteSpace=wrap;rounded=0;fontFamily=Italianno;fontSource=https%3A%2F%2Ffonts.googleapis.com%2Fcss%3Ffamily%3DItalianno;fontSize=25;fontStyle=1" parent="1" vertex="1">
          <mxGeometry x="250" y="320" width="60" height="30" as="geometry" />
        </mxCell>
        <mxCell id="vckTE8xcX2gjwNGocpAb-26" value="&lt;font style=&quot;font-size: 25px;&quot;&gt;&lt;span style=&quot;font-size: 25px;&quot;&gt;&lt;span style=&quot;font-size: 25px;&quot;&gt;h&lt;/span&gt;&lt;span style=&quot;font-size: 25px;&quot;&gt;&lt;sub style=&quot;font-size: 25px;&quot;&gt;3&lt;/sub&gt;&lt;/span&gt;&lt;/span&gt;&lt;/font&gt;" style="text;html=1;align=center;verticalAlign=middle;whiteSpace=wrap;rounded=0;fontFamily=Italianno;fontSource=https%3A%2F%2Ffonts.googleapis.com%2Fcss%3Ffamily%3DItalianno;fontSize=25;fontStyle=1" parent="1" vertex="1">
          <mxGeometry x="390" y="320" width="60" height="30" as="geometry" />
        </mxCell>
        <mxCell id="vckTE8xcX2gjwNGocpAb-27" value="&lt;font face=&quot;Ubuntu&quot; size=&quot;1&quot; style=&quot;&quot; color=&quot;#ffffff&quot;&gt;&lt;b style=&quot;font-size: 23px;&quot;&gt;RNN&lt;/b&gt;&lt;/font&gt;" style="rounded=1;whiteSpace=wrap;html=1;fillColor=#000000;strokeColor=none;fontColor=#FF6666;" parent="1" vertex="1">
          <mxGeometry x="-140" y="320" width="60" height="60" as="geometry" />
        </mxCell>
        <mxCell id="vckTE8xcX2gjwNGocpAb-28" value="&lt;font face=&quot;Ubuntu&quot; style=&quot;font-size: 20px;&quot;&gt;&lt;b&gt;hell&lt;/b&gt;&lt;/font&gt;" style="ellipse;whiteSpace=wrap;html=1;aspect=fixed;fillColor=#00CC00;fontColor=#FFFFFF;" parent="1" vertex="1">
          <mxGeometry x="-135" y="450" width="50" height="50" as="geometry" />
        </mxCell>
        <mxCell id="vckTE8xcX2gjwNGocpAb-29" value="&lt;font face=&quot;Ubuntu&quot;&gt;&lt;span style=&quot;font-size: 20px;&quot;&gt;&lt;b&gt;ello&lt;/b&gt;&lt;/span&gt;&lt;/font&gt;" style="ellipse;whiteSpace=wrap;html=1;aspect=fixed;fillColor=#FF3399;fontColor=#FFFFFF;" parent="1" vertex="1">
          <mxGeometry x="-135" y="200" width="50" height="50" as="geometry" />
        </mxCell>
        <mxCell id="vckTE8xcX2gjwNGocpAb-30" style="edgeStyle=orthogonalEdgeStyle;rounded=0;orthogonalLoop=1;jettySize=auto;html=1;exitX=0.5;exitY=0;exitDx=0;exitDy=0;strokeWidth=3;strokeColor=#6666FF;fontColor=#FF6666;" parent="1" edge="1">
          <mxGeometry relative="1" as="geometry">
            <mxPoint x="-110.25999999999999" y="310" as="sourcePoint" />
            <mxPoint x="-110.25999999999999" y="260" as="targetPoint" />
          </mxGeometry>
        </mxCell>
        <mxCell id="vckTE8xcX2gjwNGocpAb-31" style="edgeStyle=orthogonalEdgeStyle;rounded=0;orthogonalLoop=1;jettySize=auto;html=1;exitX=0.5;exitY=0;exitDx=0;exitDy=0;strokeWidth=3;strokeColor=#6666FF;fontColor=#FF6666;" parent="1" edge="1">
          <mxGeometry relative="1" as="geometry">
            <mxPoint x="-110.25999999999999" y="440" as="sourcePoint" />
            <mxPoint x="-110.25999999999999" y="390" as="targetPoint" />
          </mxGeometry>
        </mxCell>
        <mxCell id="vckTE8xcX2gjwNGocpAb-33" value="" style="shape=flexArrow;endArrow=classic;html=1;rounded=0;strokeWidth=3;" parent="1" edge="1">
          <mxGeometry width="50" height="50" relative="1" as="geometry">
            <mxPoint x="-70" y="350" as="sourcePoint" />
            <mxPoint x="30" y="350" as="targetPoint" />
          </mxGeometry>
        </mxCell>
        <mxCell id="vckTE8xcX2gjwNGocpAb-34" value="&lt;b&gt;&lt;font style=&quot;font-size: 19px;&quot; face=&quot;Ubuntu&quot;&gt;Unfold&lt;/font&gt;&lt;/b&gt;" style="text;html=1;align=center;verticalAlign=middle;whiteSpace=wrap;rounded=0;" parent="1" vertex="1">
          <mxGeometry x="-50" y="290" width="60" height="30" as="geometry" />
        </mxCell>
        <mxCell id="vckTE8xcX2gjwNGocpAb-35" value="&lt;font size=&quot;1&quot; data-font-src=&quot;https://fonts.googleapis.com/css?family=Italianno&quot; face=&quot;Italianno&quot; style=&quot;&quot; color=&quot;#ffffff&quot;&gt;&lt;b style=&quot;font-size: 27px;&quot;&gt;f&lt;/b&gt;&lt;/font&gt;" style="rounded=1;whiteSpace=wrap;html=1;fillColor=#000000;strokeColor=none;fontColor=#FF6666;" parent="1" vertex="1">
          <mxGeometry x="40" y="-50" width="60" height="60" as="geometry" />
        </mxCell>
        <mxCell id="vckTE8xcX2gjwNGocpAb-36" value="&lt;font color=&quot;#ffffff&quot; face=&quot;Italianno&quot; style=&quot;font-size: 27px;&quot;&gt;f&lt;/font&gt;" style="rounded=1;whiteSpace=wrap;html=1;fillColor=#000000;strokeColor=none;fontColor=#FF6666;" parent="1" vertex="1">
          <mxGeometry x="180" y="-50" width="60" height="60" as="geometry" />
        </mxCell>
        <mxCell id="vckTE8xcX2gjwNGocpAb-37" style="edgeStyle=orthogonalEdgeStyle;rounded=0;orthogonalLoop=1;jettySize=auto;html=1;exitX=0.5;exitY=0;exitDx=0;exitDy=0;strokeWidth=3;strokeColor=#6666FF;fontColor=#FF6666;" parent="1" edge="1">
          <mxGeometry relative="1" as="geometry">
            <mxPoint x="69.5" y="69" as="sourcePoint" />
            <mxPoint x="69.5" y="19" as="targetPoint" />
          </mxGeometry>
        </mxCell>
        <mxCell id="vckTE8xcX2gjwNGocpAb-38" value="&lt;font face=&quot;Ubuntu&quot; style=&quot;font-size: 20px;&quot;&gt;&lt;b&gt;c&lt;/b&gt;&lt;/font&gt;" style="ellipse;whiteSpace=wrap;html=1;aspect=fixed;fillColor=#00CC00;fontColor=#FFFFFF;" parent="1" vertex="1">
          <mxGeometry x="45" y="80" width="50" height="50" as="geometry" />
        </mxCell>
        <mxCell id="vckTE8xcX2gjwNGocpAb-39" style="edgeStyle=orthogonalEdgeStyle;rounded=0;orthogonalLoop=1;jettySize=auto;html=1;exitX=0.5;exitY=0;exitDx=0;exitDy=0;strokeWidth=3;strokeColor=#6666FF;fontColor=#FF6666;" parent="1" edge="1">
          <mxGeometry relative="1" as="geometry">
            <mxPoint x="69.5" y="-60" as="sourcePoint" />
            <mxPoint x="69.5" y="-110" as="targetPoint" />
          </mxGeometry>
        </mxCell>
        <mxCell id="vckTE8xcX2gjwNGocpAb-40" value="&lt;font face=&quot;Ubuntu&quot;&gt;&lt;span style=&quot;font-size: 20px;&quot;&gt;&lt;b&gt;a&lt;/b&gt;&lt;/span&gt;&lt;/font&gt;" style="ellipse;whiteSpace=wrap;html=1;aspect=fixed;fillColor=#FF3399;fontColor=#FFFFFF;" parent="1" vertex="1">
          <mxGeometry x="45" y="-170" width="50" height="50" as="geometry" />
        </mxCell>
        <mxCell id="vckTE8xcX2gjwNGocpAb-41" value="&lt;font face=&quot;Ubuntu&quot;&gt;&lt;span style=&quot;font-size: 20px;&quot;&gt;&lt;b&gt;t&lt;/b&gt;&lt;/span&gt;&lt;/font&gt;" style="ellipse;whiteSpace=wrap;html=1;aspect=fixed;fillColor=#FF3399;fontColor=#FFFFFF;" parent="1" vertex="1">
          <mxGeometry x="185" y="-170" width="50" height="50" as="geometry" />
        </mxCell>
        <mxCell id="vckTE8xcX2gjwNGocpAb-42" style="edgeStyle=orthogonalEdgeStyle;rounded=0;orthogonalLoop=1;jettySize=auto;html=1;exitX=0.5;exitY=0;exitDx=0;exitDy=0;strokeWidth=3;strokeColor=#6666FF;fontColor=#FF6666;" parent="1" edge="1">
          <mxGeometry relative="1" as="geometry">
            <mxPoint x="209.5" y="-60" as="sourcePoint" />
            <mxPoint x="209.5" y="-110" as="targetPoint" />
          </mxGeometry>
        </mxCell>
        <mxCell id="vckTE8xcX2gjwNGocpAb-43" value="&lt;font face=&quot;Ubuntu&quot; style=&quot;font-size: 20px;&quot;&gt;&lt;b&gt;a&lt;/b&gt;&lt;/font&gt;" style="ellipse;whiteSpace=wrap;html=1;aspect=fixed;fillColor=#00CC00;fontColor=#FFFFFF;" parent="1" vertex="1">
          <mxGeometry x="185" y="80" width="50" height="50" as="geometry" />
        </mxCell>
        <mxCell id="vckTE8xcX2gjwNGocpAb-44" style="edgeStyle=orthogonalEdgeStyle;rounded=0;orthogonalLoop=1;jettySize=auto;html=1;exitX=0.5;exitY=0;exitDx=0;exitDy=0;strokeWidth=3;strokeColor=#6666FF;fontColor=#FF6666;" parent="1" edge="1">
          <mxGeometry relative="1" as="geometry">
            <mxPoint x="209.5" y="70" as="sourcePoint" />
            <mxPoint x="209.5" y="20" as="targetPoint" />
          </mxGeometry>
        </mxCell>
        <mxCell id="vckTE8xcX2gjwNGocpAb-45" style="edgeStyle=orthogonalEdgeStyle;rounded=0;orthogonalLoop=1;jettySize=auto;html=1;exitX=0.5;exitY=0;exitDx=0;exitDy=0;strokeWidth=3;strokeColor=#B266FF;fontColor=#FF6666;" parent="1" edge="1">
          <mxGeometry relative="1" as="geometry">
            <mxPoint x="110" y="-20.220000000000027" as="sourcePoint" />
            <mxPoint x="170.5" y="-20.220000000000027" as="targetPoint" />
          </mxGeometry>
        </mxCell>
        <mxCell id="vckTE8xcX2gjwNGocpAb-46" value="&lt;font data-font-src=&quot;https://fonts.googleapis.com/css?family=Italianno&quot; face=&quot;Italianno&quot; style=&quot;font-size: 25px;&quot;&gt;&lt;span style=&quot;font-size: 25px;&quot;&gt;h&lt;sub style=&quot;font-size: 25px;&quot;&gt;1&lt;/sub&gt;&lt;/span&gt;&lt;/font&gt;" style="text;html=1;align=center;verticalAlign=middle;whiteSpace=wrap;rounded=0;fontSize=25;fontStyle=1" parent="1" vertex="1">
          <mxGeometry x="110" y="-50" width="60" height="30" as="geometry" />
        </mxCell>
        <mxCell id="vckTE8xcX2gjwNGocpAb-47" value="&lt;font face=&quot;Ubuntu&quot; size=&quot;1&quot; style=&quot;&quot; color=&quot;#ffffff&quot;&gt;&lt;b style=&quot;font-size: 23px;&quot;&gt;RNN&lt;/b&gt;&lt;/font&gt;" style="rounded=1;whiteSpace=wrap;html=1;fillColor=#000000;strokeColor=none;fontColor=#FF6666;" parent="1" vertex="1">
          <mxGeometry x="-140" y="-50" width="60" height="60" as="geometry" />
        </mxCell>
        <mxCell id="vckTE8xcX2gjwNGocpAb-48" value="&lt;font face=&quot;Ubuntu&quot; style=&quot;font-size: 20px;&quot;&gt;&lt;b&gt;ca&lt;/b&gt;&lt;/font&gt;" style="ellipse;whiteSpace=wrap;html=1;aspect=fixed;fillColor=#00CC00;fontColor=#FFFFFF;" parent="1" vertex="1">
          <mxGeometry x="-135" y="80" width="50" height="50" as="geometry" />
        </mxCell>
        <mxCell id="vckTE8xcX2gjwNGocpAb-49" value="&lt;font face=&quot;Ubuntu&quot;&gt;&lt;span style=&quot;font-size: 20px;&quot;&gt;&lt;b&gt;at&lt;/b&gt;&lt;/span&gt;&lt;/font&gt;" style="ellipse;whiteSpace=wrap;html=1;aspect=fixed;fillColor=#FF3399;fontColor=#FFFFFF;" parent="1" vertex="1">
          <mxGeometry x="-135" y="-170" width="50" height="50" as="geometry" />
        </mxCell>
        <mxCell id="vckTE8xcX2gjwNGocpAb-50" style="edgeStyle=orthogonalEdgeStyle;rounded=0;orthogonalLoop=1;jettySize=auto;html=1;exitX=0.5;exitY=0;exitDx=0;exitDy=0;strokeWidth=3;strokeColor=#6666FF;fontColor=#FF6666;" parent="1" edge="1">
          <mxGeometry relative="1" as="geometry">
            <mxPoint x="-110.25999999999999" y="-60" as="sourcePoint" />
            <mxPoint x="-110.25999999999999" y="-110" as="targetPoint" />
          </mxGeometry>
        </mxCell>
        <mxCell id="vckTE8xcX2gjwNGocpAb-51" style="edgeStyle=orthogonalEdgeStyle;rounded=0;orthogonalLoop=1;jettySize=auto;html=1;exitX=0.5;exitY=0;exitDx=0;exitDy=0;strokeWidth=3;strokeColor=#6666FF;fontColor=#FF6666;" parent="1" edge="1">
          <mxGeometry relative="1" as="geometry">
            <mxPoint x="-110.25999999999999" y="70" as="sourcePoint" />
            <mxPoint x="-110.25999999999999" y="20" as="targetPoint" />
          </mxGeometry>
        </mxCell>
        <mxCell id="vckTE8xcX2gjwNGocpAb-53" value="" style="shape=flexArrow;endArrow=classic;html=1;rounded=0;strokeWidth=3;" parent="1" edge="1">
          <mxGeometry width="50" height="50" relative="1" as="geometry">
            <mxPoint x="-70" y="-20" as="sourcePoint" />
            <mxPoint x="30" y="-20" as="targetPoint" />
          </mxGeometry>
        </mxCell>
        <mxCell id="vckTE8xcX2gjwNGocpAb-54" value="&lt;b&gt;&lt;font style=&quot;font-size: 19px;&quot; face=&quot;Ubuntu&quot;&gt;Unfold&lt;/font&gt;&lt;/b&gt;" style="text;html=1;align=center;verticalAlign=middle;whiteSpace=wrap;rounded=0;" parent="1" vertex="1">
          <mxGeometry x="-50" y="-80" width="60" height="30" as="geometry" />
        </mxCell>
        <mxCell id="vckTE8xcX2gjwNGocpAb-55" value="" style="endArrow=none;dashed=1;html=1;dashPattern=1 3;strokeWidth=3;rounded=0;" parent="1" edge="1">
          <mxGeometry width="50" height="50" relative="1" as="geometry">
            <mxPoint x="-225" y="104.82000000000001" as="sourcePoint" />
            <mxPoint x="-150" y="105.18" as="targetPoint" />
          </mxGeometry>
        </mxCell>
        <mxCell id="vckTE8xcX2gjwNGocpAb-56" value="" style="endArrow=none;dashed=1;html=1;dashPattern=1 3;strokeWidth=3;rounded=0;" parent="1" edge="1">
          <mxGeometry width="50" height="50" relative="1" as="geometry">
            <mxPoint x="-240" y="474.63" as="sourcePoint" />
            <mxPoint x="-165" y="474.99" as="targetPoint" />
          </mxGeometry>
        </mxCell>
        <mxCell id="vckTE8xcX2gjwNGocpAb-57" value="&lt;b&gt;&lt;font style=&quot;font-size: 19px;&quot; face=&quot;Ubuntu&quot;&gt;sequence 1&lt;/font&gt;&lt;/b&gt;" style="text;html=1;align=center;verticalAlign=middle;whiteSpace=wrap;rounded=0;" parent="1" vertex="1">
          <mxGeometry x="-345" y="90" width="110" height="30" as="geometry" />
        </mxCell>
        <mxCell id="vckTE8xcX2gjwNGocpAb-58" value="&lt;b&gt;&lt;font style=&quot;font-size: 19px;&quot; face=&quot;Ubuntu&quot;&gt;sequence 2&lt;/font&gt;&lt;/b&gt;" style="text;html=1;align=center;verticalAlign=middle;whiteSpace=wrap;rounded=0;" parent="1" vertex="1">
          <mxGeometry x="-360" y="460" width="110" height="30" as="geometry" />
        </mxCell>
      </root>
    </mxGraphModel>
  </diagram>
</mxfile>
